<svg xmlns="http://www.w3.org/2000/svg" viewBox="0 0 512 512">
  <rect x="12" y="12" width="488" height="488" rx="108" fill="#073D32"/>
  <rect x="22" y="22" width="468" height="468" rx="98" fill="none" stroke="#116A57" stroke-width="8"/>
  <circle cx="256" cy="256" r="174" fill="#FDBB0A"/>
  <circle cx="256" cy="256" r="160" fill="none" stroke="#FFD45B" stroke-width="6"/>
  <g fill="#073D32">
    <rect x="126" y="204" width="72" height="18" rx="9"/>
    <rect x="126" y="204" width="18" height="54" rx="9"/>
    <rect x="126" y="247" width="72" height="18" rx="9"/>
    <rect x="180" y="247" width="18" height="61" rx="9"/>
    <rect x="126" y="290" width="72" height="18" rx="9"/>

    <rect x="218" y="204" width="72" height="18" rx="9"/>
    <rect x="218" y="204" width="18" height="54" rx="9"/>
    <rect x="218" y="247" width="72" height="18" rx="9"/>
    <rect x="272" y="247" width="18" height="61" rx="9"/>
    <rect x="218" y="290" width="72" height="18" rx="9"/>
  </g>
  <path
    d="M 314 300 L 314 212 L 348 260 L 382 212 L 382 300"
    fill="none"
    stroke="#073D32"
    stroke-width="18"
    stroke-linecap="round"
    stroke-linejoin="round"
  />
</svg>
